<?xml version="1.0" encoding="utf-8"?>
<!-- Generator: Adobe Illustrator 19.2.1, SVG Export Plug-In . SVG Version: 6.00 Build 0)  -->
<svg version="1.1" id="Capa_1" xmlns="http://www.w3.org/2000/svg" xmlns:xlink="http://www.w3.org/1999/xlink" x="0px" y="0px"
	 viewBox="0 0 272 255" style="enable-background:new 0 0 272 255;" xml:space="preserve">
<style type="text/css">
	.st0{fill:#231F20;}
</style>
<g>
	<path id="LinkedIn" class="st0" d="M245.5,142.1V224H198v-76.4c0-19.2-6.9-32.3-24-32.3c-13.1,0-20.9,8.8-24.4,17.4
		c-1.3,3.1-1.6,7.3-1.6,11.6V224h-47.5c0,0,0.6-129.4,0-142.8H148v20.2c-0.1,0.2-0.2,0.3-0.3,0.5h0.3v-0.5
		c6.3-9.7,17.6-23.6,42.8-23.6C222,77.9,245.5,98.3,245.5,142.1z M50.9,12.4C34.6,12.4,24,23,24,37c0,13.7,10.3,24.7,26.2,24.7h0.3
		c16.6,0,26.9-11,26.9-24.7C77.1,23,67.1,12.4,50.9,12.4z M26.8,224h47.5V81.2H26.8V224z"/>
</g>
</svg>
